<svg width="70" height="69" viewBox="0 0 70 69" fill="none" xmlns="http://www.w3.org/2000/svg">
<ellipse cx="35.1945" cy="34.5" rx="34.6345" ry="34.5" fill="#D23B75"/>
<path d="M12.6067 35C12.6067 31.0107 13.5932 27.3293 15.5662 23.956C17.5392 20.5827 20.219 17.9133 23.6054 15.948C26.9919 13.9827 30.6876 13 34.6925 13C38.6974 13 42.3931 13.9827 45.7796 15.948C49.1661 17.9133 51.8458 20.5827 53.8188 23.956C55.7918 27.3293 56.7783 31.0107 56.7783 35C56.7783 38.9893 55.7918 42.6707 53.8188 46.044C51.8458 49.4173 49.1661 52.0867 45.7796 54.052C42.3931 56.0173 38.6974 57 34.6925 57C30.6876 57 26.9919 56.0173 23.6054 54.052C20.219 52.0867 17.5392 49.4173 15.5662 46.044C13.5932 42.6707 12.6067 38.9893 12.6067 35ZM16.2729 35C16.2729 39.576 17.8189 43.6093 20.9109 47.1C22.3244 44.3427 24.5625 41.7173 27.625 39.224C30.6876 36.7307 33.6765 35.1613 36.5919 34.516C36.1501 33.4893 35.7232 32.5653 35.3109 31.744C30.2459 33.3573 24.7686 34.164 18.8791 34.164C17.7306 34.164 16.8766 34.1493 16.3171 34.12C16.3171 34.2373 16.3098 34.384 16.295 34.56C16.2803 34.736 16.2729 34.8827 16.2729 35ZM16.8472 30.468C17.495 30.5267 18.4521 30.556 19.7183 30.556C24.6361 30.556 29.3036 29.896 33.7207 28.576C31.4827 24.616 29.0238 21.316 26.3441 18.676C24.0177 19.8493 22.0226 21.4773 20.3588 23.56C18.695 25.6427 17.5245 27.9453 16.8472 30.468ZM23.4287 49.476C26.7564 52.0573 30.5109 53.348 34.6925 53.348C36.8716 53.348 39.0361 52.9373 41.1857 52.116C40.5968 47.1 39.4483 42.2453 37.7403 37.552C35.0311 38.1387 32.2999 39.62 29.5465 41.996C26.7931 44.372 24.7539 46.8653 23.4287 49.476ZM30.187 17.268C32.7784 19.9373 35.1784 23.2667 37.387 27.256C41.3919 25.584 44.4102 23.4573 46.4421 20.876C43.0262 18.06 39.1096 16.652 34.6925 16.652C33.1907 16.652 31.6888 16.8573 30.187 17.268ZM38.9771 30.38C39.4188 31.3187 39.9195 32.5067 40.479 33.944C42.6581 33.7387 45.0286 33.636 47.5906 33.636C49.4164 33.636 51.2274 33.68 53.0237 33.768C52.7881 29.7787 51.3452 26.2293 48.6949 23.12C46.7808 25.9653 43.5416 28.3853 38.9771 30.38ZM41.5833 37.024C43.0851 41.3653 44.101 45.824 44.6311 50.4C46.9575 48.904 48.8569 46.9827 50.3292 44.636C51.8016 42.2893 52.6851 39.752 52.9795 37.024C50.8299 36.8773 48.8716 36.804 47.1047 36.804C45.4851 36.804 43.6446 36.8773 41.5833 37.024Z" fill="white"/>
</svg>
